<svg width="111" height="103" viewBox="0 0 111 103" fill="none" xmlns="http://www.w3.org/2000/svg">
<path d="M36.7329 95.121C35.263 92.35 33.8467 89.578 32.2452 86.8691C31.9921 86.4273 28.7355 81.2115 29.2307 81.1995C35.765 80.9506 41.0406 81.1329 47.3803 78.7502C53.5004 76.4532 59.2442 72.9026 64.3009 68.7985C73.6258 61.2174 81.0233 51.6717 86.2714 40.8916C90.7612 31.6556 94.2554 19.9105 91.601 9.652C91.1006 7.73427 87.1215 -1.08304 83.8537 1.60297C82.3304 2.85599 84.1539 4.4326 84.7841 5.77913C86.0739 8.53135 86.39 11.3701 86.4379 14.4149C86.8166 36.843 65.7222 59.4729 46.4318 68.0212C41.2644 70.3043 35.7559 71.7669 30.0563 71.3094C28.8019 71.2029 24.2016 71.0275 23.8454 69.8489C23.4992 68.7079 29.3553 64.6712 30.3096 63.7584C33.7416 60.4786 38.6156 56.5978 40.8777 52.3708C41.889 50.4638 42.2483 48.4364 40.1986 47.1215C37.7442 45.5531 35.6043 47.7223 33.8028 49.1437C28.7042 53.192 24.3079 58.1517 19.7197 62.7472C15.5353 66.9394 10.5859 70.2369 14.5464 76.0687C18.5102 81.913 23.4452 87.3093 27.9922 92.7157C29.2593 94.2268 32.2259 98.662 34.7045 98.7623C38.3295 98.9175 35.4182 95.7951 36.7329 95.121C35.4096 92.6459 36.6483 95.157 36.7329 95.121Z" fill="#F39908"/>
</svg>
