<svg width="26" height="26" viewBox="0 0 26 26" fill="none" xmlns="http://www.w3.org/2000/svg">
<path d="M13.5417 11.9165H20.5833L23.8333 15.1665V5.95817C23.8333 4.7665 22.8583 3.7915 21.6667 3.7915H13.5417C12.35 3.7915 11.375 4.7665 11.375 5.95817V9.74984C11.375 10.9415 12.35 11.9165 13.5417 11.9165Z" fill="#65A8A6"/>
<path d="M12.4582 10.2915H5.4165L2.1665 13.5415V4.33317C2.1665 3.1415 3.1415 2.1665 4.33317 2.1665H12.4582C13.6498 2.1665 14.6248 3.1415 14.6248 4.33317V8.12484C14.6248 9.3165 13.6498 10.2915 12.4582 10.2915Z" fill="#113B3A"/>
<path d="M6.49984 19.5002C7.99561 19.5002 9.20817 18.2876 9.20817 16.7918C9.20817 15.2961 7.99561 14.0835 6.49984 14.0835C5.00407 14.0835 3.7915 15.2961 3.7915 16.7918C3.7915 18.2876 5.00407 19.5002 6.49984 19.5002Z" fill="#FFA726"/>
<path d="M19.4998 19.5002C20.9956 19.5002 22.2082 18.2876 22.2082 16.7918C22.2082 15.2961 20.9956 14.0835 19.4998 14.0835C18.0041 14.0835 16.7915 15.2961 16.7915 16.7918C16.7915 18.2876 18.0041 19.5002 19.4998 19.5002Z" fill="#FFA726"/>
<path d="M10.8332 22.7502C10.8332 22.7502 9.6415 20.5835 6.49984 20.5835C3.35817 20.5835 2.1665 22.7502 2.1665 22.7502V23.8335H10.8332V22.7502Z" fill="#607D8B"/>
<path d="M23.8332 22.7502C23.8332 22.7502 22.6415 20.5835 19.4998 20.5835C16.3582 20.5835 15.1665 22.7502 15.1665 22.7502V23.8335H23.8332V22.7502Z" fill="#607D8B"/>
</svg>
