<svg width="517" height="500" viewBox="0 0 517 500" fill="none" xmlns="http://www.w3.org/2000/svg">
<path d="M274.92 454.945C236.227 449.74 189.567 454.294 170.708 465.029C151.686 475.764 167.781 488.777 206.312 493.982C245.006 499.187 291.666 494.632 310.525 483.897C329.547 472.999 313.452 460.15 274.92 454.945Z" fill="#3A3A3A"/>
<path d="M170.545 471.698C189.567 460.963 236.227 456.409 274.758 461.613C298.494 464.867 313.777 470.885 317.516 477.716C322.719 468.608 306.298 459.174 274.758 454.945C236.064 449.74 189.404 454.294 170.545 465.029C163.229 469.096 161.115 473.65 163.554 477.879C164.692 475.764 167.131 473.65 170.545 471.698Z" fill="#113B3A"/>
<path d="M119.82 479.668C132.664 486.662 121.771 495.12 95.5962 498.536C69.4211 501.952 37.7182 499.024 24.8745 492.03C12.0308 485.036 22.9236 476.578 49.0987 473.162C75.2739 469.746 106.977 472.674 119.82 479.668Z" fill="#D7D7DD"/>
<path d="M125.186 482.596C124.86 481.295 124.535 479.993 124.373 478.692C124.373 479.017 124.535 479.343 124.535 479.668C124.535 479.343 124.535 479.017 124.373 478.692C124.048 477.554 123.397 476.415 122.422 475.276C122.259 475.114 121.934 474.788 121.771 474.626C121.284 474.3 120.796 473.813 120.308 473.487C119.82 473.162 119.008 472.674 118.52 472.349C117.707 472.023 116.731 471.373 116.081 471.047C115.431 470.722 114.618 470.397 113.805 470.071C112.504 469.583 110.716 469.096 109.415 468.608C108.603 468.282 107.464 468.12 106.489 467.794C104.538 467.306 101.449 466.656 100.636 466.656C99.6607 466.493 98.5227 466.33 97.5472 466.168C95.5962 465.842 92.995 465.517 91.044 465.354C89.0931 465.192 81.7771 464.541 73.323 464.704C70.7217 464.704 70.7217 464.704 66.0069 465.029C64.8689 465.029 63.5683 465.192 62.4302 465.354C61.2922 465.517 59.1786 465.68 55.2767 466.168C54.9516 466.168 52.1878 466.493 48.9362 467.144C47.3104 467.469 45.0343 467.957 43.4085 468.445C41.4576 468.933 38.206 470.071 36.0925 470.885C34.7918 471.373 33.8164 471.861 32.6783 472.674C31.3777 473.487 30.89 473.975 30.0771 474.626C30.0771 474.626 29.5893 475.114 29.1016 475.764C28.7764 476.09 28.7764 476.252 28.4513 476.74C28.4513 476.74 28.2887 477.066 27.9635 477.716C27.801 478.042 27.801 478.041 27.6384 478.692C27.6384 478.855 27.6384 479.017 27.6384 479.18C27.6384 479.017 27.6384 478.855 27.6384 478.692C27.3132 479.993 26.9881 481.295 26.6629 482.596C26.1752 484.873 27.6384 487.313 31.5403 489.427C43.5711 496.259 72.9978 499.024 97.5472 495.771C116.244 493.331 126.486 487.963 125.186 482.596Z" fill="#FFAE5E"/>
<path d="M117.219 472.186C128.437 478.53 119.008 486.174 96.2465 489.265C73.4855 492.355 45.8472 489.59 34.7918 483.247C23.5739 476.903 33.0035 469.258 55.7645 466.168C78.5255 463.077 106.164 465.843 117.219 472.186ZM106.001 473.65C97.8723 469.096 77.8752 467.144 61.4547 469.258C44.8717 471.536 38.0434 477.066 46.1723 481.62C54.3013 486.174 74.2984 488.126 90.7189 486.012C107.139 483.735 113.968 478.204 106.001 473.65Z" fill="#FF924D"/>
<path d="M84.866 391.184C84.3783 389.558 83.0777 388.744 82.5899 388.419C82.1022 388.094 80.9641 387.606 78.5255 387.28C77.55 387.118 75.599 386.955 73.3229 387.28C70.8843 387.606 69.7462 388.419 69.2585 388.582C68.7707 388.907 68.4456 389.232 67.9579 389.72C67.6327 390.208 67.4701 390.696 67.3075 391.021C67.145 391.509 67.4701 391.835 68.1204 392.323C70.234 393.461 75.4365 394.112 79.8261 393.461C83.4028 393.136 85.1912 392.16 84.866 391.184Z" fill="#FF924D"/>
<path d="M42.7582 476.903C43.5711 474.301 44.5465 470.885 45.1968 468.282C45.522 466.981 46.0097 465.355 46.4975 464.053C47.3104 461.451 48.2858 458.035 48.9362 455.433C49.749 452.83 50.7245 449.414 51.3748 446.812C51.7 445.511 52.1877 443.884 52.6755 442.583C53.4884 439.981 54.4638 436.565 55.1141 433.962C55.927 431.36 56.9025 427.944 57.5528 425.342C57.878 424.04 58.3657 422.414 58.8534 421.113C59.6663 418.51 60.6418 415.094 61.2921 412.492C62.105 409.889 63.0805 406.474 63.7308 403.871C64.056 402.57 64.5437 400.943 65.0314 399.642C65.8443 397.04 66.8198 393.624 67.4701 391.021C67.3075 391.509 67.6327 391.835 68.283 392.323C70.3965 393.461 75.599 394.112 79.9887 393.461C83.2402 392.973 85.1912 391.997 84.866 391.021C85.5163 393.624 86.4918 397.04 87.3047 399.642C87.955 402.245 88.9305 405.66 89.7434 408.263C90.3937 410.865 91.3692 414.281 92.1821 416.884C92.8324 419.486 93.8079 422.902 94.6207 425.504C95.2711 428.107 96.2465 431.522 97.0594 434.125C97.7097 436.727 98.6852 440.143 99.4981 442.746C99.8233 444.047 100.311 445.673 100.636 446.975C101.286 449.577 102.262 452.993 103.075 455.595C103.725 458.198 104.701 461.614 105.514 464.216C105.839 465.517 106.326 467.144 106.652 468.445C107.302 471.048 108.277 474.463 109.09 477.066C110.066 480.807 103.237 484.385 90.5563 486.012C73.9733 488.289 54.1387 486.337 46.0097 481.62C43.4085 480.156 42.433 478.53 42.7582 476.903Z" fill="#FFAE5E"/>
<path d="M96.2465 430.872C96.8968 433.149 92.6698 435.264 85.0286 436.239C75.1113 437.541 63.0805 436.402 58.0406 433.637C56.4148 432.661 55.7645 431.685 56.0896 430.709C56.9025 428.107 57.878 424.691 58.5283 422.088C58.8535 420.787 59.3412 419.161 59.8289 417.859C60.3167 416.07 60.967 413.793 61.4547 412.004C61.2921 412.655 61.7799 413.468 62.9179 414.118C66.4947 416.233 75.2739 417.046 82.5899 416.07C88.1176 415.257 91.2066 413.63 90.7189 412.004C91.3692 414.606 92.3446 418.022 93.1575 420.625C93.4827 421.926 93.9704 423.552 94.2956 424.854C94.9459 426.805 95.5962 429.083 96.2465 430.872Z" fill="white"/>
<path d="M105.839 465.192C106.814 468.445 100.474 471.698 89.0931 473.325C74.2984 475.276 56.2522 473.65 49.0987 469.421C46.6601 467.957 45.6846 466.493 46.1723 465.029C46.9852 462.427 47.9607 459.011 48.611 456.409C48.9362 455.107 49.4239 453.481 49.9116 452.18C50.3994 450.39 51.0497 448.113 51.5374 446.324C51.2123 447.463 52.0252 448.764 53.9761 449.902C59.9915 453.318 74.6236 454.782 86.817 453.155C96.084 451.854 101.286 449.252 100.474 446.487L105.839 465.192Z" fill="white"/>
<path d="M435.386 473.162C461.561 476.578 472.454 485.036 459.61 492.03C446.766 499.024 415.063 501.952 388.888 498.536C362.713 495.12 351.82 486.662 364.664 479.668C377.508 472.674 409.21 469.746 435.386 473.162Z" fill="#D7D7DD"/>
<path d="M359.299 482.596C359.624 481.295 359.949 479.993 360.112 478.692C360.112 479.017 359.949 479.343 359.949 479.668C359.949 479.343 359.949 479.017 360.112 478.692C360.437 477.554 361.087 476.415 362.063 475.276C362.225 475.114 362.55 474.788 362.713 474.626C363.201 474.3 363.688 473.813 364.176 473.487C364.664 473.162 365.477 472.674 365.964 472.349C366.777 472.023 367.753 471.373 368.403 471.047C369.053 470.722 369.866 470.397 370.679 470.071C371.98 469.583 373.768 469.096 375.069 468.608C375.882 468.282 377.02 468.12 377.995 467.794C379.946 467.306 383.035 466.656 383.848 466.656C384.824 466.493 385.962 466.33 386.937 466.168C388.888 465.842 391.489 465.517 393.44 465.354C395.391 465.192 402.707 464.541 411.161 464.704C413.763 464.704 413.763 464.704 418.477 465.029C419.615 465.029 420.916 465.192 422.054 465.354C423.192 465.517 425.306 465.68 429.208 466.168C429.533 466.168 432.297 466.493 435.548 467.144C437.174 467.469 439.45 467.957 441.076 468.445C443.027 468.933 446.278 470.071 448.392 470.885C449.692 471.373 450.668 471.861 451.806 472.674C453.107 473.487 453.594 473.975 454.407 474.626C454.407 474.626 454.895 475.114 455.383 475.764C455.708 476.09 455.708 476.252 456.033 476.74C456.033 476.74 456.196 477.066 456.521 477.716C456.683 478.042 456.683 478.041 456.846 478.692C456.846 478.855 456.846 479.017 456.846 479.18C456.846 479.017 456.846 478.855 456.846 478.692C457.171 479.993 457.496 481.295 457.821 482.596C458.309 484.873 456.846 487.313 452.944 489.427C440.913 496.259 411.486 499.024 386.937 495.771C368.241 493.331 357.998 487.963 359.299 482.596Z" fill="#FFAE5E"/>
<path d="M428.72 466.168C451.481 469.258 460.91 476.903 449.692 483.247C438.475 489.59 410.999 492.193 388.238 489.265C365.477 486.174 356.047 478.53 367.265 472.186C378.32 465.843 405.959 463.077 428.72 466.168ZM378.483 473.65C370.354 478.204 377.182 483.735 393.765 486.012C410.348 488.289 430.183 486.337 438.312 481.62C446.441 477.066 439.613 471.536 423.03 469.258C406.609 467.144 386.612 469.096 378.483 473.65Z" fill="#FF924D"/>
<path d="M399.618 391.184C400.106 389.558 401.407 388.744 401.894 388.419C402.382 388.094 403.52 387.606 405.959 387.28C406.934 387.118 408.885 386.955 411.161 387.28C413.6 387.606 414.738 388.419 415.226 388.582C415.714 388.907 416.039 389.232 416.526 389.72C416.852 390.208 417.014 390.696 417.177 391.021C417.339 391.509 417.014 391.835 416.364 392.323C414.25 393.461 409.048 394.112 404.658 393.461C401.081 393.136 399.293 392.16 399.618 391.184Z" fill="#FF924D"/>
<path d="M441.726 476.903C440.913 474.301 439.938 470.885 439.287 468.282C438.962 466.981 438.474 465.355 437.987 464.053C437.174 461.451 436.198 458.035 435.548 455.433C434.735 452.83 433.76 449.414 433.109 446.812C432.784 445.511 432.297 443.884 431.809 442.583C430.996 439.981 430.02 436.565 429.37 433.962C428.557 431.36 427.582 427.944 426.931 425.342C426.606 424.04 426.119 422.414 425.631 421.113C424.818 418.51 423.842 415.094 423.192 412.492C422.379 409.889 421.404 406.474 420.753 403.871C420.428 402.57 419.941 400.943 419.453 399.642C418.64 397.04 417.664 393.624 417.014 391.021C417.177 391.509 416.852 391.835 416.201 392.323C414.088 393.461 408.885 394.112 404.496 393.461C401.244 392.973 399.293 391.997 399.618 391.021C398.968 393.624 397.992 397.04 397.18 399.642C396.529 402.245 395.554 405.66 394.741 408.263C394.091 410.865 393.115 414.281 392.302 416.884C391.652 419.486 390.676 422.902 389.864 425.504C389.213 428.107 388.238 431.522 387.425 434.125C386.775 436.727 385.799 440.143 384.986 442.746C384.661 444.047 384.173 445.673 383.848 446.975C383.198 449.577 382.222 452.993 381.409 455.595C380.759 458.198 379.784 461.614 378.971 464.216C378.646 465.517 378.158 467.144 377.833 468.445C377.182 471.048 376.207 474.463 375.394 477.066C374.419 480.807 381.247 484.385 393.928 486.012C410.511 488.289 430.346 486.337 438.475 481.62C441.076 480.156 442.051 478.53 441.726 476.903Z" fill="#FFAE5E"/>
<path d="M388.238 430.872C387.587 433.149 391.814 435.264 399.456 436.239C409.373 437.541 421.404 436.402 426.444 433.637C428.069 432.661 428.72 431.685 428.395 430.709C427.582 428.107 426.606 424.691 425.956 422.088C425.631 420.787 425.143 419.161 424.655 417.859C424.168 416.07 423.517 413.793 423.03 412.004C423.192 412.655 422.704 413.468 421.566 414.118C417.99 416.233 409.21 417.046 401.894 416.07C396.367 415.257 393.278 413.63 393.765 412.004C393.115 414.606 392.14 418.022 391.327 420.625C391.002 421.926 390.514 423.552 390.189 424.854C389.538 426.805 388.888 429.083 388.238 430.872Z" fill="white"/>
<path d="M378.646 465.192C377.67 468.445 384.011 471.698 395.391 473.325C410.186 475.276 428.232 473.65 435.386 469.421C437.824 467.957 438.8 466.493 438.312 465.029C437.499 462.427 436.524 459.011 435.873 456.409C435.548 455.107 435.06 453.481 434.573 452.18C434.085 450.39 433.435 448.113 432.947 446.324C433.272 447.463 432.459 448.764 430.508 449.902C424.493 453.318 409.861 454.782 397.667 453.155C388.4 451.854 383.198 449.252 384.011 446.487L378.646 465.192Z" fill="white"/>
<path d="M430.671 309.044L320.93 310.508L321.906 343.201L225.984 362.72L250.371 375.732L232.487 401.757L295.893 424.528L273.132 454.619L241.592 496.096C239.803 496.096 238.015 496.096 236.389 496.096L262.239 453.644L278.009 427.781L214.604 408.263L227.61 382.238L178.836 357.84L274.758 330.189L244.518 311.483L67.7953 313.923L27.6384 65.0618L450.343 24.3982L430.671 309.044ZM463.349 53.676L443.84 283.019L473.104 58.5556L463.349 53.676ZM14.6321 79.7007L8.12893 89.46L35.7673 174.04L14.6321 79.7007ZM388.563 0L121.934 40.6636L391.814 16.2655L388.563 0ZM34.3041 287.899L39.0189 300.911H50.3994L47.7981 287.899H34.3041ZM29.2642 191.932H0L29.1016 273.26H45.0343L29.2642 191.932ZM466.601 193.559H477.981L482.696 180.547H469.202L466.601 193.559ZM487.736 84.5804L471.966 165.908H487.898L517 84.5804H487.736Z" fill="white"/>
<path d="M171.846 222.186V244.795H140.468V222.186L83.728 222.349V198.276L141.118 115.973H171.683L171.846 196.487H186.153V222.186H171.846ZM142.256 156.148H141.931L116.569 196.487H142.256V156.148Z" fill="#113B3A"/>
<path d="M290.203 198.113C290.203 208.198 288.089 216.819 284.025 224.463C279.473 232.433 272.807 238.452 264.028 242.355C257.525 245.608 250.371 247.072 242.73 247.235C236.064 247.235 229.561 245.934 223.058 243.331C203.711 235.198 194.119 220.234 194.119 198.439V162.655C194.119 140.371 203.711 125.407 223.058 117.599C229.561 114.997 236.064 113.696 242.567 113.696C249.233 113.696 255.736 114.997 262.239 117.762C280.773 125.895 290.04 140.696 290.04 162.329L290.203 198.113ZM257.199 161.516C257.199 155.823 256.224 151.431 254.11 148.178C251.509 144.275 247.607 142.485 242.08 142.485C236.877 142.485 232.975 144.437 230.211 148.341C227.935 151.757 226.96 156.148 226.96 161.679V199.252C226.96 204.782 228.098 209.174 230.374 212.59C232.975 216.493 236.877 218.445 242.242 218.445C247.77 218.445 251.672 216.493 254.273 212.59C256.224 209.336 257.362 204.945 257.362 199.089L257.199 161.516Z" fill="#113B3A"/>
<path d="M386.612 221.861V244.47H355.234V221.861L298.494 222.023V197.951L355.885 115.647H386.449L386.612 196.161H400.919V221.861H386.612ZM357.185 155.823H356.86L331.498 196.161H357.185V155.823Z" fill="#113B3A"/>
<path d="M219.276 74.05V78.31H226.146V82.27H219.276V86.89H227.046V91H214.146V69.94H227.046V74.05H219.276ZM235.507 77.05C236.107 76.13 236.857 75.41 237.757 74.89C238.657 74.35 239.657 74.08 240.757 74.08V79.51H239.347C238.067 79.51 237.107 79.79 236.467 80.35C235.827 80.89 235.507 81.85 235.507 83.23V91H230.377V74.26H235.507V77.05ZM248.339 77.05C248.939 76.13 249.689 75.41 250.589 74.89C251.489 74.35 252.489 74.08 253.589 74.08V79.51H252.179C250.899 79.51 249.939 79.79 249.299 80.35C248.659 80.89 248.339 81.85 248.339 83.23V91H243.209V74.26H248.339V77.05ZM271.821 82.36C271.821 82.84 271.791 83.34 271.731 83.86H260.121C260.201 84.9 260.531 85.7 261.111 86.26C261.711 86.8 262.441 87.07 263.301 87.07C264.581 87.07 265.471 86.53 265.971 85.45H271.431C271.151 86.55 270.641 87.54 269.901 88.42C269.181 89.3 268.271 89.99 267.171 90.49C266.071 90.99 264.841 91.24 263.481 91.24C261.841 91.24 260.381 90.89 259.101 90.19C257.821 89.49 256.821 88.49 256.101 87.19C255.381 85.89 255.021 84.37 255.021 82.63C255.021 80.89 255.371 79.37 256.071 78.07C256.791 76.77 257.791 75.77 259.071 75.07C260.351 74.37 261.821 74.02 263.481 74.02C265.101 74.02 266.541 74.36 267.801 75.04C269.061 75.72 270.041 76.69 270.741 77.95C271.461 79.21 271.821 80.68 271.821 82.36ZM266.571 81.01C266.571 80.13 266.271 79.43 265.671 78.91C265.071 78.39 264.321 78.13 263.421 78.13C262.561 78.13 261.831 78.38 261.231 78.88C260.651 79.38 260.291 80.09 260.151 81.01H266.571ZM291.057 74.26V91H285.927V88.72C285.407 89.46 284.697 90.06 283.797 90.52C282.917 90.96 281.937 91.18 280.857 91.18C279.577 91.18 278.447 90.9 277.467 90.34C276.487 89.76 275.727 88.93 275.187 87.85C274.647 86.77 274.377 85.5 274.377 84.04V74.26H279.477V83.35C279.477 84.47 279.767 85.34 280.347 85.96C280.927 86.58 281.707 86.89 282.687 86.89C283.687 86.89 284.477 86.58 285.057 85.96C285.637 85.34 285.927 84.47 285.927 83.35V74.26H291.057ZM299.872 77.05C300.472 76.13 301.222 75.41 302.122 74.89C303.022 74.35 304.022 74.08 305.122 74.08V79.51H303.712C302.432 79.51 301.472 79.79 300.832 80.35C300.192 80.89 299.872 81.85 299.872 83.23V91H294.742V74.26H299.872V77.05Z" fill="#113B3A"/>
</svg>
