<svg width="78" height="149" viewBox="0 0 78 149" fill="none" xmlns="http://www.w3.org/2000/svg">
<g clip-path="url(#clip0)">
<path d="M72.7119 143.679H5.28814C2.37966 143.679 0 146.073 0 149H78C78 146.073 75.6203 143.679 72.7119 143.679Z" fill="url(#paint0_linear)"/>
<path d="M43.8907 71.8394C43.8907 60.9305 72.006 59.3341 72.006 33.8799C72.006 17.3835 57.2873 3.99121 38.9551 3.99121C20.6229 3.99121 5.9043 17.3835 5.9043 33.9686C5.9043 59.4228 34.0195 60.9305 34.0195 71.9281C34.0195 82.837 5.9043 84.4335 5.9043 109.888C5.9043 126.384 20.7111 139.865 38.9551 139.865C57.1992 139.865 72.006 126.473 72.006 109.888C72.006 84.3448 43.8907 82.7484 43.8907 71.8394Z" fill="#C7E6FA"/>
<path d="M52.7033 83.9903C47.0626 80.354 42.127 77.1611 42.127 71.8397C42.127 66.5182 46.9745 63.4141 52.7033 59.6891C60.5474 54.6337 70.2423 48.3367 70.2423 33.8801C70.2423 27.051 67.5101 20.754 63.0152 15.876H12.6016C12.0728 16.5855 12.6016 17.6498 13.483 17.6498H48.3847C49.5304 17.6498 50.4999 18.3593 50.8525 19.4236C52.2626 23.592 53.0559 28.5587 53.0559 33.7915C53.0559 48.1593 48.2084 54.4563 44.2423 59.6004C41.422 63.2367 38.9542 66.4296 38.9542 71.751C38.9542 77.0724 41.422 80.1766 44.2423 83.9016C48.1203 88.9569 53.0559 95.254 53.0559 109.711C53.0559 114.943 52.2626 119.91 50.8525 124.078C50.4999 125.143 49.4423 125.852 48.3847 125.852H13.483C12.6016 125.852 12.0728 126.916 12.6016 127.626H63.1033C67.5982 122.748 70.3304 116.451 70.3304 109.622C70.3304 95.3426 60.5474 89.0456 52.7033 83.9903Z" fill="#A3C3EC"/>
<path d="M23.3559 22.8823C25.1186 24.6561 24.7661 27.6716 22.7389 29.8002C20.7118 31.84 17.6271 32.1948 15.8644 30.421C14.1017 28.6472 14.4542 25.6317 16.4813 23.5031C18.5966 21.3746 21.5932 21.1085 23.3559 22.8823Z" fill="#EAFFFF"/>
<path d="M23.3559 93.8344C25.1186 95.6083 24.7661 98.6237 22.7389 100.752C20.7118 102.792 17.6271 103.147 15.8644 101.373C14.1017 99.5993 14.4542 96.5838 16.4813 94.4553C18.5966 92.3267 21.5932 92.0606 23.3559 93.8344Z" fill="#EAFFFF"/>
<path d="M54.9074 56.4073C63.3684 50.5537 68.5684 44.434 68.5684 33.8799H9.51758C9.51758 44.434 14.5413 50.465 23.0905 56.4073C27.4091 59.4227 38.6023 67.5823 38.6023 72.9037V103.236C38.6023 109.976 22.5616 120.619 14.2769 124.167C15.1583 125.408 16.2159 126.561 17.3616 127.626H60.5481C61.6938 126.561 62.7515 125.32 63.6328 124.078C53.5854 119.644 39.3955 109.089 39.3955 103.147V72.815C39.4837 67.4936 50.5888 59.4227 54.9074 56.4073Z" fill="#FBC245"/>
<path d="M39.4841 103.236V72.8147C39.4841 67.4933 50.5892 59.4224 54.9078 56.4957C63.3689 50.6421 68.5689 44.5224 68.5689 33.9683H53.1451C53.1451 48.3361 48.2977 54.7218 44.3316 59.7772C41.5112 63.4135 39.0434 66.6064 39.0434 71.9278V103.856C39.0434 111.572 45.5655 116.539 51.8231 120.974C51.5587 122.127 51.2061 123.191 50.9417 124.255C50.5892 125.319 49.5316 126.118 48.3858 126.118H15.6875C16.2163 126.739 16.7451 127.359 17.3621 127.892H60.5485C61.6943 126.827 62.7519 125.586 63.6333 124.344C53.6739 119.732 39.4841 109.178 39.4841 103.236Z" fill="#E49945"/>
<path d="M67.4229 15.9645H10.5755C8.37209 15.9645 6.60938 14.1907 6.60938 11.9734V10.6431H71.389V11.9734C71.389 14.1907 69.6263 15.9645 67.4229 15.9645Z" fill="#8B6137"/>
<path d="M48.7382 15.9645H10.5755C8.37209 15.9645 6.60938 14.1907 6.60938 11.9734V10.6431H52.7043V11.9734C52.7043 14.1907 50.8534 15.9645 48.7382 15.9645Z" fill="#A87348"/>
<path d="M71.2131 10.6429H6.87407C3.9656 10.6429 1.58594 8.24821 1.58594 5.32143C1.58594 2.39464 3.9656 0 6.87407 0H71.2131C74.1215 0 76.5012 2.39464 76.5012 5.32143C76.5012 8.24821 74.1215 10.6429 71.2131 10.6429Z" fill="#C58857"/>
<path d="M35.9597 2.66113H12.1631C11.1936 2.66113 10.4004 3.45935 10.4004 4.43494C10.4004 5.41054 11.1936 6.20875 12.1631 6.20875H35.9597C36.9292 6.20875 37.7224 5.41054 37.7224 4.43494C37.7224 3.45935 36.9292 2.66113 35.9597 2.66113Z" fill="#E7B56D"/>
<path d="M71.2136 0H52.7051C55.6136 0 57.9932 2.39464 57.9932 5.32143C57.9932 8.24821 55.6136 10.6429 52.7051 10.6429H71.2136C74.122 10.6429 76.5017 8.24821 76.5017 5.32143C76.5017 2.39464 74.122 0 71.2136 0Z" fill="#A87348"/>
<path d="M67.4229 127.714H10.5755C8.37209 127.714 6.60938 129.488 6.60938 131.705V133.035H71.389V131.705C71.389 129.488 69.6263 127.714 67.4229 127.714Z" fill="#8B6137"/>
<path d="M48.7382 127.714H10.5755C8.37209 127.714 6.60938 129.488 6.60938 131.705V133.035H52.7043V131.705C52.7043 129.488 50.8534 127.714 48.7382 127.714Z" fill="#A87348"/>
<path d="M71.2131 133.035H6.87407C3.9656 133.035 1.58594 135.43 1.58594 138.357C1.58594 141.283 3.9656 143.678 6.87407 143.678H71.2131C74.1215 143.678 76.5012 141.283 76.5012 138.357C76.5012 135.43 74.1215 133.035 71.2131 133.035Z" fill="#C58857"/>
<path d="M35.9597 135.696H12.1631C11.1936 135.696 10.4004 136.494 10.4004 137.47C10.4004 138.445 11.1936 139.243 12.1631 139.243H35.9597C36.9292 139.243 37.7224 138.445 37.7224 137.47C37.7224 136.494 36.9292 135.696 35.9597 135.696Z" fill="#E7B56D"/>
<path d="M71.2136 133.035H52.7051C55.6136 133.035 57.9932 135.43 57.9932 138.357C57.9932 141.283 55.6136 143.678 52.7051 143.678H71.2136C74.122 143.678 76.5017 141.283 76.5017 138.357C76.5017 135.43 74.122 133.035 71.2136 133.035Z" fill="#A87348"/>
</g>
<defs>
<linearGradient id="paint0_linear" x1="39" y1="149" x2="39" y2="143.679" gradientUnits="userSpaceOnUse">
<stop stop-color="white"/>
<stop offset="0.2121" stop-color="#FAF9FA"/>
<stop offset="0.4896" stop-color="#EAE9EA"/>
<stop offset="0.8021" stop-color="#D1CED1"/>
<stop offset="1" stop-color="#BDB9BD"/>
</linearGradient>
<clipPath id="clip0">
<rect width="78" height="149" fill="white"/>
</clipPath>
</defs>
</svg>
