<svg width="25" height="22" viewBox="0 0 25 22" fill="none" xmlns="http://www.w3.org/2000/svg">
<g clip-path="url(#clip0_4066:193)">
<path d="M15.1748 7.17292C14.4251 6.40903 13.6438 5.74444 12.831 5.17917C12.0182 4.61389 11.2567 4.18993 10.5464 3.90729C9.83622 3.62465 9.18517 3.48906 8.59332 3.50052C8.00146 3.51198 7.53981 3.68958 7.20837 4.03333C7.12946 4.10972 7.06238 4.19566 7.00714 4.29115C6.9519 4.38663 6.91244 4.46111 6.88877 4.51458C6.86509 4.56806 6.83353 4.66354 6.79407 4.80104C6.75461 4.93854 6.72699 5.02639 6.71121 5.06458L2.3078 19.0896L2.58005 19.3646C2.27229 19.5708 1.99806 19.8115 1.75737 20.0865C1.51668 20.3615 1.30559 20.5868 1.12408 20.7625C0.942581 20.9382 0.725567 21.0604 0.473041 21.1292C0.417801 21.1444 0.348751 21.196 0.265891 21.2839C0.183032 21.3717 0.141602 21.45 0.141602 21.5188C0.141602 21.6562 0.212624 21.7708 0.35467 21.8625C0.496716 21.9542 0.654544 22 0.828155 22C1.04912 22 1.26218 21.9141 1.46736 21.7422C1.67254 21.5703 1.87969 21.3507 2.08881 21.0833C2.29793 20.816 2.44984 20.6403 2.54454 20.5562C2.74972 20.3806 2.97857 20.2125 3.23109 20.0521L3.53886 20.3385L17.5304 15.7438C17.8381 15.6521 18.0749 15.5146 18.2406 15.3313C18.572 14.9875 18.7437 14.512 18.7555 13.9047C18.7673 13.2974 18.6352 12.629 18.359 11.8995C18.0828 11.17 17.6704 10.3908 17.122 9.56198C16.5735 8.73316 15.9244 7.93681 15.1748 7.17292ZM13.8964 8.42188C15.1037 9.61354 16.0211 10.7536 16.6485 11.8422C17.2759 12.9307 17.4278 13.6469 17.1042 13.9906C16.7807 14.3344 16.0744 14.2083 14.9854 13.6125C13.8964 13.0167 12.7521 12.1267 11.5526 10.9427C10.3373 9.75104 9.416 8.61285 8.78863 7.52813C8.16126 6.4434 8.00935 5.72535 8.3329 5.37396C8.65645 5.03021 9.3647 5.15625 10.4577 5.75208C11.5506 6.34792 12.6969 7.23785 13.8964 8.42188ZM11.304 13.1656C11.8801 13.6622 12.4522 14.0976 13.0204 14.4719C13.0283 14.4872 13.2256 14.8462 13.6123 15.549L12.6179 15.8813C12.1445 15.0181 11.7065 14.1128 11.304 13.1656ZM7.26756 7.91771C7.44117 8.29201 7.68186 8.74653 7.98962 9.28125C8.24215 10.3813 8.63869 11.5729 9.17925 12.8562C9.71982 14.1396 10.3097 15.3427 10.9489 16.4656L9.96642 16.7865C9.22463 15.4573 8.57753 14.0651 8.02513 12.6099C7.47273 11.1547 7.1334 9.86944 7.00714 8.75417L7.26756 7.91771ZM5.89445 12.1115C6.44685 13.8226 7.22415 15.5795 8.22637 17.3823L7.25572 17.7146C6.47447 16.2632 5.85894 14.8997 5.40913 13.624L5.89445 12.1115ZM4.53318 16.2938C4.84094 16.9965 5.16844 17.6649 5.51566 18.299L4.54502 18.6313C4.43454 18.425 4.27671 18.108 4.07153 17.6802L4.53318 16.2938ZM13.2335 0L13.8253 1.73021L12.2983 2.80729H14.1804L14.7605 4.5375L15.3405 2.80729H17.2108L15.6956 1.73021L16.2875 0.0114583L14.7605 1.07708L13.2335 0ZM9.91908 0L9.59947 1.56979L11.2212 1.87917L11.5408 0.309375L9.91908 0ZM20.5843 4.72083L21.8864 3.40313L23.5791 4.20521L22.7032 2.60104L24.0171 1.30625L22.1587 1.61563L21.2827 0L21.0223 1.81042L19.1639 2.11979L20.8566 2.91042L20.5843 4.72083ZM20.1464 7.53958L21.7207 8.54792L21.2235 10.3125L22.6913 9.16667L24.2538 10.175L23.6028 8.45625L25.0706 7.33333L23.1885 7.41354L22.5256 5.70625L22.0403 7.45938L20.1464 7.53958ZM19.4716 3.28854L15.9442 6.08437L16.3822 6.6L19.9096 3.80417L19.4716 3.28854ZM20.7027 8.69688L17.9447 8.45625L17.8736 9.12083L20.6435 9.36146L20.7027 8.69688ZM20.975 11.9052L20.466 13.4406L22.0403 13.9333L22.5611 12.4094L20.975 11.9052Z" fill="#F39908"/>
</g>
<defs>
<clipPath id="clip0_4066:193">
<rect width="25" height="22" fill="white"/>
</clipPath>
</defs>
</svg>
