<svg width="119" height="108" viewBox="0 0 119 108" fill="none" xmlns="http://www.w3.org/2000/svg">
<path d="M72.2339 35.2125C68.6654 31.4625 64.9467 28.2 61.0777 25.425C57.2087 22.65 53.5838 20.5687 50.2031 19.1812C46.8224 17.7937 43.7235 17.1281 40.9063 17.1844C38.089 17.2406 35.8916 18.1125 34.3139 19.8C33.9383 20.175 33.619 20.5969 33.3561 21.0656C33.0931 21.5344 32.9053 21.9 32.7926 22.1625C32.6799 22.425 32.5297 22.8937 32.3419 23.5687C32.154 24.2437 32.0226 24.675 31.9474 24.8625L10.9872 93.7125L12.2832 95.0625C10.8182 96.075 9.51287 97.2562 8.3672 98.6062C7.22152 99.9562 6.21671 101.062 5.35276 101.925C4.4888 102.787 3.45582 103.387 2.2538 103.725C1.99086 103.8 1.66218 104.053 1.26777 104.484C0.873354 104.916 0.676147 105.3 0.676147 105.637C0.676147 106.312 1.01422 106.875 1.69035 107.325C2.36649 107.775 3.11775 108 3.94414 108C4.99591 108 6.01011 107.578 6.98675 106.734C7.96339 105.891 8.94943 104.812 9.94485 103.5C10.9403 102.188 11.6634 101.325 12.1141 100.912C13.0908 100.05 14.1801 99.225 15.3821 98.4375L16.8471 99.8438L83.4465 77.2875C84.9115 76.8375 86.0384 76.1625 86.8272 75.2625C88.4048 73.575 89.2218 71.2406 89.2782 68.2594C89.3345 65.2781 88.7053 61.9969 87.3906 58.4156C86.0759 54.8344 84.1132 51.0094 81.5026 46.9406C78.892 42.8719 75.8024 38.9625 72.2339 35.2125ZM66.1487 41.3438C71.8958 47.1937 76.2625 52.7906 79.2488 58.1344C82.2351 63.4781 82.9582 66.9938 81.4181 68.6813C79.878 70.3688 76.5161 69.75 71.3324 66.825C66.1487 63.9 60.702 59.5312 54.9924 53.7188C49.2077 47.8687 44.8222 42.2812 41.8359 36.9562C38.8497 31.6312 38.1266 28.1062 39.6667 26.3812C41.2068 24.6937 44.578 25.3125 49.7805 28.2375C54.983 31.1625 60.4391 35.5312 66.1487 41.3438ZM53.8092 64.6312C56.5513 67.0687 59.2746 69.2062 61.9792 71.0437C62.0167 71.1188 62.9558 72.8812 64.7964 76.3312L60.0634 77.9625C57.8097 73.725 55.7249 69.2812 53.8092 64.6312ZM34.5956 38.8687C35.422 40.7062 36.5677 42.9375 38.0327 45.5625C39.2347 50.9625 41.1222 56.8125 43.6953 63.1125C46.2684 69.4125 49.0762 75.3187 52.1188 80.8312L47.4422 82.4062C43.9113 75.8812 40.8311 69.0469 38.2017 61.9031C35.5723 54.7594 33.9571 48.45 33.3561 42.975L34.5956 38.8687ZM28.0597 59.4562C30.6891 67.8562 34.3891 76.4812 39.1596 85.3312L34.5393 86.9625C30.8206 79.8375 27.8906 73.1437 25.7495 66.8812L28.0597 59.4562ZM21.58 79.9875C23.045 83.4375 24.6039 86.7188 26.2566 89.8312L21.6364 91.4625C21.1105 90.45 20.3592 88.8937 19.3826 86.7937L21.58 79.9875ZM62.9934 0L65.8106 8.49375L58.5421 13.7812H67.5009L70.2618 22.275L73.0227 13.7812H81.9252L74.7131 8.49375L77.5303 0.05625L70.2618 5.2875L62.9934 0ZM47.2169 0L45.6956 7.70625L53.4148 9.225L54.9361 1.51875L47.2169 0ZM97.9834 23.175L104.181 16.7062L112.239 20.6437L108.069 12.7687L114.323 6.4125L105.477 7.93125L101.308 0L100.068 8.8875L91.2221 10.4062L99.2794 14.2875L97.9834 23.175ZM95.8987 37.0125L103.393 41.9625L101.026 50.625L108.013 45L115.45 49.95L112.351 41.5125L119.338 36L110.379 36.3937L107.224 28.0125L104.914 36.6187L95.8987 37.0125ZM92.687 16.1437L75.8963 29.8687L77.9811 32.4L94.7718 18.675L92.687 16.1437ZM98.5469 42.6937L85.4186 41.5125L85.0805 44.775L98.2651 45.9562L98.5469 42.6937ZM99.8428 58.4437L97.42 65.9812L104.914 68.4L107.393 60.9187L99.8428 58.4437Z" fill="#F39908"/>
</svg>
