<svg width="53" height="53" viewBox="0 0 53 53" fill="none" xmlns="http://www.w3.org/2000/svg">
<g clip-path="url(#clip0)">
<path d="M11.6468 23.25C13.9398 23.25 16.1813 23.93 18.0879 25.2039C19.9945 26.4778 21.4805 28.2885 22.358 30.407C23.2355 32.5255 23.4651 34.8566 23.0177 37.1056C22.5704 39.3545 21.4662 41.4204 19.8448 43.0418C18.2234 44.6632 16.1575 45.7674 13.9086 46.2147C11.6596 46.6621 9.3285 46.4325 7.21001 45.555C5.09153 44.6775 3.28084 43.1915 2.0069 41.2849C0.732962 39.3783 0.053 37.1368 0.053 34.8438L0 33.1875C0 27.0378 2.44296 21.14 6.79146 16.7915C11.14 12.443 17.0378 10 23.1875 10V16.625C21.0115 16.6192 18.856 17.0447 16.8455 17.8771C14.835 18.7095 13.0095 19.9322 11.4745 21.4745C10.8779 22.07 10.3275 22.71 9.82819 23.3891C10.4211 23.2964 11.0273 23.2467 11.6434 23.2467L11.6468 23.25ZM41.4592 23.25C43.7523 23.25 45.9938 23.93 47.9004 25.2039C49.807 26.4778 51.293 28.2885 52.1705 30.407C53.048 32.5255 53.2776 34.8566 52.8302 37.1056C52.3829 39.3545 51.2787 41.4204 49.6573 43.0418C48.0359 44.6632 45.97 45.7674 43.7211 46.2147C41.4721 46.6621 39.141 46.4325 37.0225 45.555C34.904 44.6775 33.0933 43.1915 31.8194 41.2849C30.5455 39.3783 29.8655 37.1368 29.8655 34.8438L29.8125 33.1875C29.8125 27.0378 32.2555 21.14 36.604 16.7915C40.9525 12.443 46.8503 10 53 10V16.625C50.824 16.6192 48.6685 17.0447 46.658 17.8771C44.6475 18.7095 42.822 19.9322 41.287 21.4745C40.6904 22.07 40.14 22.71 39.6407 23.3891C40.2336 23.2964 40.8398 23.2467 41.4592 23.2467V23.25Z" fill="#F39908"/>
</g>
<defs>
<clipPath id="clip0">
<rect width="53" height="53" fill="white"/>
</clipPath>
</defs>
</svg>
