<svg width="224" height="127" viewBox="0 0 224 127" fill="none" xmlns="http://www.w3.org/2000/svg">
<path d="M0.980469 93.6543H9.54188L15.4549 110.387H15.5276L21.477 93.6543H30.002V119.296H24.3435V99.6305H24.2708L17.5234 119.298H13.2064L6.71352 99.6305H6.64082V119.298H0.982288V93.6543H0.980469Z" fill="white"/>
<path d="M32.5759 93.6543H50.024V98.8701H38.2344V103.65H49.3715V108.866H38.2344V114.082H50.6766V119.298H32.574V93.6543H32.5759Z" fill="white"/>
<path d="M52.5634 93.6543H70.0116V98.8701H58.2219V103.65H69.359V108.866H58.2219V114.082H70.6641V119.298H52.5616V93.6543H52.5634Z" fill="white"/>
<path d="M77.3024 98.6523H69.9752V93.6543H90.2899V98.6523H82.9609V119.296H77.3024V98.6523Z" fill="white"/>
<path d="M116.952 113.249L122.683 119.298H115.682L113.542 116.871C111.437 119.044 109.043 119.949 105.997 119.949C101.354 119.949 96.8918 117.414 96.8918 112.271C96.8918 108.975 99.2858 106.295 102.334 105.28C100.665 103.469 99.5039 102.057 99.5039 99.5217C99.5039 94.8867 103.421 93.0029 107.52 93.0029C111.474 93.0029 114.993 94.9956 114.993 99.3058C114.993 102.347 112.817 104.63 110.241 105.97L113.542 109.483L116.045 106.079H122.358L116.952 113.249ZM105.708 108.36C104.294 109.229 102.768 110.098 102.768 112.019C102.768 113.902 104.437 115.169 106.215 115.169C107.884 115.169 109.045 114.336 110.241 113.285L105.708 108.36ZM104.946 99.7395C104.946 101.008 106.215 102.166 107.086 102.963C108.211 102.311 109.988 101.115 109.988 99.6669C109.988 98.1824 108.827 97.3494 107.449 97.3494C106.033 97.3494 104.946 98.2913 104.946 99.7395Z" fill="#F29801"/>
<path d="M130.447 93.6543H140.024C144.523 93.6543 149.42 94.5962 149.42 100.173C149.42 103.035 147.642 104.99 144.994 105.823V105.895C148.368 106.329 150.616 108.83 150.616 112.162C150.616 117.523 145.537 119.298 140.966 119.298H130.445V93.6543H130.447ZM136.105 103.904H140.204C141.946 103.904 143.76 103.18 143.76 101.115C143.76 98.9771 141.727 98.4345 139.95 98.4345H136.105V103.904ZM136.105 114.516H141.184C142.962 114.516 144.958 113.755 144.958 111.51C144.958 109.084 142.236 108.685 140.386 108.685H136.105V114.516Z" fill="white"/>
<path d="M172.743 109.409C172.743 115.457 169.042 119.947 161.933 119.947C154.788 119.947 151.087 115.456 151.087 109.409V93.6543H156.745V109.193C156.745 112.343 158.921 114.733 161.933 114.733C164.909 114.733 167.085 112.343 167.085 109.193V93.6543H172.743V109.409Z" fill="white"/>
<path d="M175.028 93.6543H180.686V119.296H175.028V93.6543Z" fill="white"/>
<path d="M183.189 93.6543H188.848V114.082H199.333V119.298H183.189V93.6543Z" fill="white"/>
<path d="M199.585 93.6543H208.074C216.344 93.6543 223.274 97.1678 223.274 106.549C223.274 114.842 216.49 119.298 208.835 119.298H199.585V93.6543ZM205.245 114.082H208.185C213.445 114.082 217.399 112.089 217.399 106.258C217.399 101.224 213.372 98.8701 208.583 98.8701H205.245V114.082Z" fill="white"/>
<path d="M128.92 48.075C130.323 36.0392 123.21 30.3497 114.585 24.8545C125.586 16.8639 135.798 9.01296 146.484 1.86803C151.95 -1.78519 160.035 0.739217 163.754 6.14192C167.692 11.864 166.625 19.4173 161.168 24.1794C160.052 25.1539 158.841 26.0232 157.647 26.9034C148.418 33.7126 139.183 40.5127 128.92 48.075Z" fill="white"/>
<path d="M93.8963 48.1913C82.3847 39.6199 71.693 32.0104 61.4211 23.8728C55.6135 19.2722 55.1518 10.9422 59.5525 5.40883C63.9023 -0.0628366 72.0802 -1.40398 78.0586 2.81727C86.9926 9.12375 95.6231 15.8585 104.561 22.1578C107.787 24.4317 107.316 25.6948 104.352 27.5205C97.2191 31.9124 92.8111 37.9212 93.8963 48.1913Z" fill="white"/>
<path d="M56.8768 31.626C65.9781 38.3662 74.265 44.4839 82.5138 50.6507C83.0482 51.0499 83.6408 51.823 83.6353 52.4183C83.5644 60.1694 84.8732 68.0366 82.8991 75.6352C81.3304 81.6767 75.312 85.2428 69.19 84.6821C62.6535 84.0832 57.1295 79.3447 56.975 73.0673C56.6496 59.6267 56.8768 46.1717 56.8768 31.626Z" fill="#F29801"/>
<path d="M164.816 31.626C155.715 38.3662 147.428 44.4839 139.179 50.6507C138.645 51.0499 138.052 51.823 138.057 52.4183C138.128 60.1694 136.82 68.0366 138.794 75.6352C140.362 81.6767 146.381 85.2428 152.503 84.6821C159.039 84.0832 164.563 79.3447 164.718 73.0673C165.043 59.6267 164.816 46.1717 164.816 31.626Z" fill="#F29801"/>
<path d="M111.528 57.6682C103.883 57.748 98.0515 52.1258 97.9243 44.5543C97.8261 38.7651 106.408 27.9179 111.248 27.7129C115.729 27.5223 124.895 38.658 124.888 44.2839C124.877 51.8517 119.15 57.5902 111.528 57.6682Z" fill="white"/>
</svg>
